# xmcd
#
# Track frame offsets:
#	150
#	10291
#	21174
#	32620
#	44261
#	54582
#	65777
#	76758
#	87551
#	97212
#	107818
#	119084
#
# Disc length: 1723 seconds
#
# Revision: 1
# Processed by: cddbd v1.5.2PL0 Copyright (c) Steve Scherf et al.
# Submitted via: EasyCDDAExtractor 16.0.1.1
#
DISCID=a306b90c
DTITLE=Maxine Brown - Sugar Cane Country
DYEAR=1969
DGENRE=Country
TTITLE0=Sugar Cane County
TTITLE1=I Want To Thank You
TTITLE2=You'll Come A Running
TTITLE3=Never Love Again
TTITLE4=Take It Out On Trade
TTITLE5=Another Souvenir
TTITLE6=I'm In The Arms Of A Heritage
TTITLE7=Under The Influence Of Love
TTITLE8=Dad I Never Saw You Cry
TTITLE9=My Biggest Mistake
TTITLE10=Take Time To Know Him
TTITLE11=One Man Band
EXTD=
EXTT0=
EXTT1=
EXTT2=
EXTT3=
EXTT4=
EXTT5=
EXTT6=
EXTT7=
EXTT8=
EXTT9=
EXTT10=
EXTT11=
PLAYORDER=
